<svg width="30" height="29" viewBox="0 0 30 29" fill="none" xmlns="http://www.w3.org/2000/svg">
<path d="M26.0833 25.9167H3.91667V10.3333H26.0833M21.3333 0.416672V3.25001H8.66667V0.416672H5.5V3.25001H3.91667C2.15917 3.25001 0.75 4.51084 0.75 6.08334V25.9167C0.75 26.6681 1.08363 27.3888 1.6775 27.9201C2.27136 28.4515 3.07681 28.75 3.91667 28.75H26.0833C26.9232 28.75 27.7286 28.4515 28.3225 27.9201C28.9164 27.3888 29.25 26.6681 29.25 25.9167V6.08334C29.25 4.51084 27.825 3.25001 26.0833 3.25001H24.5V0.416672M22.9167 16H15V23.0833H22.9167V16Z" fill="white"/>
</svg>
