<svg width="20" height="29" viewBox="0 0 20 29" fill="none" xmlns="http://www.w3.org/2000/svg">
<path d="M10 13.8125C9.06069 13.8125 8.15985 13.4503 7.49566 12.8057C6.83147 12.161 6.45833 11.2867 6.45833 10.375C6.45833 9.46332 6.83147 8.58898 7.49566 7.94432C8.15985 7.29966 9.06069 6.9375 10 6.9375C10.9393 6.9375 11.8401 7.29966 12.5043 7.94432C13.1685 8.58898 13.5417 9.46332 13.5417 10.375C13.5417 10.8264 13.4501 11.2734 13.2721 11.6905C13.0941 12.1075 12.8332 12.4865 12.5043 12.8057C12.1755 13.1249 11.785 13.3781 11.3553 13.5508C10.9256 13.7236 10.4651 13.8125 10 13.8125ZM10 0.75C7.36993 0.75 4.84759 1.76406 2.98785 3.5691C1.12812 5.37413 0.0833282 7.82229 0.0833282 10.375C0.0833282 17.5938 10 28.25 10 28.25C10 28.25 19.9167 17.5938 19.9167 10.375C19.9167 7.82229 18.8719 5.37413 17.0121 3.5691C15.1524 1.76406 12.6301 0.75 10 0.75Z" fill="white"/>
</svg>
