<svg width="27" height="25" viewBox="0 0 27 25" fill="none" xmlns="http://www.w3.org/2000/svg">
<path d="M17.875 22.125L9.125 19.2237V2.875L17.875 5.77625M25.8958 0.125C25.8083 0.125 25.7354 0.125 25.6625 0.125L17.875 3.0125L9.125 0.125L0.9 2.7375C0.59375 2.83375 0.375 3.08125 0.375 3.3975V24.1875C0.375 24.3698 0.451823 24.5447 0.588568 24.6736C0.725313 24.8026 0.91078 24.875 1.10417 24.875C1.17708 24.875 1.26458 24.875 1.3375 24.8337L9.125 21.9875L17.875 24.875L26.1 22.2625C26.4062 22.125 26.625 21.9188 26.625 21.6025V0.8125C26.625 0.630164 26.5482 0.455295 26.4114 0.326364C26.2747 0.197433 26.0892 0.125 25.8958 0.125Z" fill="white"/>
</svg>
