<svg width="25" height="25" viewBox="0 0 25 25" fill="none" xmlns="http://www.w3.org/2000/svg">
<path d="M5.55083 10.9371C7.41083 14.5925 10.4075 17.5892 14.0629 19.4492L16.9046 16.6075C17.2662 16.2458 17.77 16.1425 18.2221 16.2846C19.6688 16.7625 21.2188 17.0208 22.8333 17.0208C23.1759 17.0208 23.5044 17.1569 23.7467 17.3992C23.9889 17.6414 24.125 17.9699 24.125 18.3125V22.8333C24.125 23.1759 23.9889 23.5044 23.7467 23.7467C23.5044 23.9889 23.1759 24.125 22.8333 24.125C17.0096 24.125 11.4244 21.8115 7.30645 17.6936C3.18846 13.5756 0.875 7.99038 0.875 2.16667C0.875 1.8241 1.01109 1.49555 1.25332 1.25332C1.49555 1.01109 1.8241 0.875 2.16667 0.875H6.6875C7.03007 0.875 7.35861 1.01109 7.60085 1.25332C7.84308 1.49555 7.97917 1.8241 7.97917 2.16667C7.97917 3.78125 8.2375 5.33125 8.71542 6.77792C8.8575 7.23 8.75417 7.73375 8.3925 8.09542L5.55083 10.9371Z" fill="white"/>
</svg>
